<mxfile host="drawio-plugin" modified="2022-06-08T03:03:55.555Z" agent="5.0 (Macintosh; Intel Mac OS X 10_16_0) AppleWebKit/537.36 (KHTML, like Gecko) Chrome/84.0.4147.105 Safari/537.36" version="14.7.4" etag="JpU2Ur5HZ2KJ3XFpRHbg" type="embed"><diagram id="vr6_YnA2Mvuh5uYAmtOc" name="Page-1"><mxGraphModel dx="1073" dy="862" grid="1" gridSize="10" guides="1" tooltips="1" connect="1" arrows="1" fold="1" page="1" pageScale="1" pageWidth="850" pageHeight="1100" math="0" shadow="0"><root><mxCell id="0"/><mxCell id="1" parent="0"/><mxCell id="13" style="edgeStyle=orthogonalEdgeStyle;rounded=0;orthogonalLoop=1;jettySize=auto;html=1;entryX=1;entryY=0.5;entryDx=0;entryDy=0;" edge="1" parent="1" source="6" target="9"><mxGeometry relative="1" as="geometry"><Array as="points"><mxPoint x="370.5" y="220"/><mxPoint x="370.5" y="280"/></Array></mxGeometry></mxCell><mxCell id="6" value="EXECUTED" style="html=1;labelBackgroundColor=none;" vertex="1" parent="1"><mxGeometry x="200.5" y="200" width="150" height="40" as="geometry"/></mxCell><mxCell id="12" style="edgeStyle=orthogonalEdgeStyle;rounded=0;orthogonalLoop=1;jettySize=auto;html=1;entryX=0;entryY=0.5;entryDx=0;entryDy=0;" edge="1" parent="1" source="9" target="11"><mxGeometry relative="1" as="geometry"><Array as="points"><mxPoint x="180.5" y="280"/><mxPoint x="180.5" y="360"/></Array></mxGeometry></mxCell><mxCell id="25" style="edgeStyle=orthogonalEdgeStyle;rounded=0;orthogonalLoop=1;jettySize=auto;html=1;entryX=0;entryY=0.5;entryDx=0;entryDy=0;" edge="1" parent="1" source="9" target="20"><mxGeometry relative="1" as="geometry"><Array as="points"><mxPoint x="275.5" y="320"/></Array></mxGeometry></mxCell><mxCell id="9" value="BROADCASTED" style="html=1;labelBackgroundColor=none;" vertex="1" parent="1"><mxGeometry x="200.5" y="260" width="150" height="40" as="geometry"/></mxCell><mxCell id="17" style="edgeStyle=orthogonalEdgeStyle;rounded=0;orthogonalLoop=1;jettySize=auto;html=1;entryX=1;entryY=0.5;entryDx=0;entryDy=0;" edge="1" parent="1" source="11" target="15"><mxGeometry relative="1" as="geometry"><Array as="points"><mxPoint x="370.5" y="360"/><mxPoint x="370.5" y="420"/></Array></mxGeometry></mxCell><mxCell id="21" style="edgeStyle=orthogonalEdgeStyle;rounded=0;orthogonalLoop=1;jettySize=auto;html=1;entryX=0;entryY=0.5;entryDx=0;entryDy=0;" edge="1" parent="1" source="11" target="14"><mxGeometry relative="1" as="geometry"/></mxCell><mxCell id="11" value="STARTED" style="html=1;labelBackgroundColor=none;" vertex="1" parent="1"><mxGeometry x="200.5" y="340" width="150" height="40" as="geometry"/></mxCell><mxCell id="28" style="edgeStyle=orthogonalEdgeStyle;rounded=0;orthogonalLoop=1;jettySize=auto;html=1;entryX=1;entryY=0.5;entryDx=0;entryDy=0;" edge="1" parent="1" source="14" target="27"><mxGeometry relative="1" as="geometry"><Array as="points"><mxPoint x="610.5" y="380"/><mxPoint x="610.5" y="440"/></Array></mxGeometry></mxCell><mxCell id="14" value="COMPLETED" style="html=1;labelBackgroundColor=none;" vertex="1" parent="1"><mxGeometry x="440.5" y="360" width="150" height="40" as="geometry"/></mxCell><mxCell id="24" style="edgeStyle=orthogonalEdgeStyle;rounded=0;orthogonalLoop=1;jettySize=auto;html=1;entryX=0;entryY=0.5;entryDx=0;entryDy=0;" edge="1" parent="1" source="15" target="18"><mxGeometry relative="1" as="geometry"><Array as="points"><mxPoint x="180.5" y="420"/><mxPoint x="180.5" y="480"/></Array></mxGeometry></mxCell><mxCell id="15" value="EXTENSION REQUEST" style="html=1;labelBackgroundColor=none;" vertex="1" parent="1"><mxGeometry x="200.5" y="400" width="150" height="40" as="geometry"/></mxCell><mxCell id="26" style="edgeStyle=orthogonalEdgeStyle;rounded=0;orthogonalLoop=1;jettySize=auto;html=1;entryX=0;entryY=0.5;entryDx=0;entryDy=0;" edge="1" parent="1" source="18" target="14"><mxGeometry relative="1" as="geometry"/></mxCell><mxCell id="18" value="EXTENDED" style="html=1;labelBackgroundColor=none;" vertex="1" parent="1"><mxGeometry x="200.5" y="460" width="150" height="40" as="geometry"/></mxCell><mxCell id="39" style="edgeStyle=orthogonalEdgeStyle;rounded=0;orthogonalLoop=1;jettySize=auto;html=1;entryX=0.33;entryY=0.5;entryDx=0;entryDy=0;entryPerimeter=0;" edge="1" parent="1" source="20" target="36"><mxGeometry relative="1" as="geometry"/></mxCell><mxCell id="20" value="CANCELLED" style="html=1;labelBackgroundColor=none;" vertex="1" parent="1"><mxGeometry x="440.5" y="300" width="150" height="40" as="geometry"/></mxCell><mxCell id="30" style="edgeStyle=orthogonalEdgeStyle;rounded=0;orthogonalLoop=1;jettySize=auto;html=1;entryX=0;entryY=0.5;entryDx=0;entryDy=0;" edge="1" parent="1" source="27" target="29"><mxGeometry relative="1" as="geometry"><Array as="points"><mxPoint x="420.5" y="440"/><mxPoint x="420.5" y="500"/></Array></mxGeometry></mxCell><mxCell id="27" value="PAID" style="html=1;labelBackgroundColor=none;" vertex="1" parent="1"><mxGeometry x="440.5" y="420" width="150" height="40" as="geometry"/></mxCell><mxCell id="35" style="edgeStyle=orthogonalEdgeStyle;rounded=0;orthogonalLoop=1;jettySize=auto;html=1;entryX=0.557;entryY=0.55;entryDx=0;entryDy=0;entryPerimeter=0;" edge="1" parent="1" source="29" target="34"><mxGeometry relative="1" as="geometry"><Array as="points"><mxPoint x="610.5" y="500"/><mxPoint x="610.5" y="540"/><mxPoint x="530.5" y="540"/></Array></mxGeometry></mxCell><mxCell id="29" value="PAYMENT VERIFIED" style="html=1;labelBackgroundColor=none;" vertex="1" parent="1"><mxGeometry x="440.5" y="480" width="150" height="40" as="geometry"/></mxCell><mxCell id="33" value="" style="html=1;shadow=0;dashed=0;align=center;verticalAlign=middle;shape=mxgraph.arrows2.arrow;dy=0.69;dx=16;direction=south;notch=0;labelBackgroundColor=none;fillColor=#7EA6E0;" vertex="1" parent="1"><mxGeometry x="260.5" y="160" width="30" height="40" as="geometry"/></mxCell><mxCell id="34" value="" style="verticalLabelPosition=bottom;verticalAlign=top;html=1;shape=mxgraph.basic.tick;labelBackgroundColor=none;fillColor=#97D077;" vertex="1" parent="1"><mxGeometry x="480.5" y="540" width="35" height="40" as="geometry"/></mxCell><mxCell id="36" value="" style="verticalLabelPosition=bottom;verticalAlign=top;html=1;shape=mxgraph.basic.x;labelBackgroundColor=none;fillColor=#EA6B66;" vertex="1" parent="1"><mxGeometry x="650.5" y="310" width="20" height="20" as="geometry"/></mxCell><mxCell id="40" value="&lt;h1&gt;Order process flow&lt;/h1&gt;" style="text;html=1;strokeColor=none;fillColor=none;spacing=5;spacingTop=-20;whiteSpace=wrap;overflow=hidden;rounded=0;labelBackgroundColor=none;" vertex="1" parent="1"><mxGeometry x="293" y="40" width="265" height="40" as="geometry"/></mxCell></root></mxGraphModel></diagram></mxfile>